<?xml version="1.0" encoding="UTF-8"?>
<svg xmlns="http://www.w3.org/2000/svg" xmlns:xlink="http://www.w3.org/1999/xlink" version="1.1" id="Layer_1" x="0px" y="0px" viewBox="0 0 244 51" style="enable-background:new 0 0 244 51;" xml:space="preserve">
<g>
	<g>
		<g>
			<path d="M83.07,43.43l-7.64-10.88c-0.71,0.05-1.47,0.1-2.23,0.1h-8.75v10.77h-5.06V8.02H73.2c9.21,0,14.77,4.65,14.77,12.34     c0,5.46-2.83,9.41-7.79,11.18l8.4,11.89H83.07z M82.92,20.36c0-5.06-3.39-7.94-9.86-7.94h-8.6v15.93h8.6     C79.53,28.35,82.92,25.42,82.92,20.36z"></path>
			<path d="M119.59,31.64H97.84c0.61,4.7,4.4,7.84,9.71,7.84c3.14,0,5.77-1.06,7.74-3.24l2.68,3.14c-2.43,2.83-6.12,4.35-10.57,4.35     c-8.65,0-14.42-5.72-14.42-13.71c0-7.94,5.72-13.66,13.45-13.66s13.25,5.57,13.25,13.81C119.69,30.58,119.64,31.18,119.59,31.64z      M97.84,28.15h17.2c-0.51-4.5-3.89-7.69-8.6-7.69C101.78,20.46,98.34,23.6,97.84,28.15z"></path>
			<path d="M123.94,30.02c0-7.99,5.92-13.66,14.16-13.66c4.81,0,8.8,1.97,10.93,5.72l-3.69,2.38c-1.72-2.63-4.35-3.84-7.28-3.84     c-5.26,0-9.21,3.69-9.21,9.41c0,5.82,3.95,9.46,9.21,9.46c2.93,0,5.56-1.21,7.28-3.84l3.69,2.33c-2.12,3.74-6.12,5.77-10.93,5.77     C129.86,43.73,123.94,38.01,123.94,30.02z"></path>
			<path d="M169.72,16.36v4.7c-0.4-0.05-0.76-0.05-1.11-0.05c-5.21,0-8.45,3.19-8.45,9.05v13.35h-4.86V16.62h4.65v4.5     C161.67,17.98,165.01,16.36,169.72,16.36z"></path>
			<path d="M201.03,16.62v26.81h-4.6v-4.05c-1.97,2.78-5.31,4.35-9.1,4.35c-6.93,0-11.53-3.79-11.53-11.68V16.62h4.86v14.87     c0,5.26,2.63,7.89,7.23,7.89c5.06,0,8.29-3.14,8.29-8.9V16.62H201.03z"></path>
			<path d="M209.42,8.32c0-1.77,1.42-3.19,3.29-3.19c1.87,0,3.29,1.37,3.29,3.08c0,1.82-1.37,3.24-3.29,3.24     C210.84,11.46,209.42,10.09,209.42,8.32z M210.28,16.62h4.86v26.81h-4.86V16.62z"></path>
			<path d="M239.47,41.86c-1.47,1.26-3.69,1.87-5.87,1.87c-5.41,0-8.5-2.98-8.5-8.4V20.61h-4.55v-4h4.55v-5.87h4.86v5.87h7.69v4     h-7.69v14.52c0,2.88,1.52,4.5,4.2,4.5c1.42,0,2.78-0.45,3.79-1.26L239.47,41.86z"></path>
		</g>
		<g>
			<path d="M22.5,29.13c-1.13,0-2.26,0-3.57,0c1.15,4.7,3.96,8.11,8.63,10.04c6.04,2.5,11.62,1.42,16.87-2.36     c1.23,1.23,2.48,2.48,4,3.99c-2.07,1.14-3.95,2.24-5.9,3.24c-3.92,2.01-8.29,2.09-12.46,1.5c-3.26-0.47-6.39-1.86-9.11-3.89     c-3.72-2.79-6.07-6.28-7.43-10.43c-0.46-2.18-0.46-2.17-2.88-2.19C8.61,29.03,6.57,29,4.53,28.97c0-1.67,0-3.35,0-5.11     c2.81,0,5.47,0,8.33,0c2.09-8.45,7.27-14.39,16.75-16.25c6.71-1.31,12.92,0.07,18.33,4.4c-1.11,1.15-2.16,2.32-3.32,3.39     c-0.23,0.21-1.02,0.24-1.27,0.05c-2.75-2.13-5.87-2.77-9.45-2.85c-3.51-0.08-6.48,0.77-9.15,2.63c-2.96,2.06-5.3,5.14-5.71,8.53     c4.94,0,9.86,0,14.91,0c0,1.77,0,3.42,0,5.16c-0.46,0.07-0.96,0.14-1.46,0.21C29.15,29.13,25.83,29.13,22.5,29.13z"></path>
		</g>
	</g>
</g>
</svg>
